<!-- Generator: Adobe Illustrator 22.0.0, SVG Export Plug-In  -->
<svg version="1.1"
	 xmlns="http://www.w3.org/2000/svg" xmlns:xlink="http://www.w3.org/1999/xlink" xmlns:a="http://ns.adobe.com/AdobeSVGViewerExtensions/3.0/"
	 x="0px" y="0px" width="32.5px" height="30.1px" viewBox="0 0 32.5 30.1" style="enable-background:new 0 0 32.5 30.1;"
	 xml:space="preserve">
<style type="text/css">
	.st0{fill:#FFFFFF;}
</style>
<defs>
</defs>
<g>
	<path class="st0" d="M13.6,24.3c-1.6,0-2.9,1.3-2.9,2.9s1.3,2.9,2.9,2.9s2.9-1.3,2.9-2.9C16.4,25.6,15.2,24.3,13.6,24.3 M13.6,28.4
		c-0.7,0-1.3-0.6-1.3-1.3s0.6-1.3,1.3-1.3c0.7,0,1.3,0.6,1.3,1.3S14.3,28.4,13.6,28.4"/>
	<path class="st0" d="M23.6,24.3c-1.6,0-2.9,1.3-2.9,2.9s1.3,2.9,2.9,2.9s2.9-1.3,2.9-2.9C26.4,25.6,25.2,24.3,23.6,24.3 M23.6,28.4
		c-0.7,0-1.3-0.6-1.3-1.3s0.6-1.3,1.3-1.3c0.7,0,1.3,0.6,1.3,1.3S24.3,28.4,23.6,28.4"/>
	<path class="st0" d="M24.3,9.3H12.9c-0.4,0-0.8,0.4-0.8,0.8s0.4,0.8,0.8,0.8h11.4c0.4,0,0.8-0.4,0.8-0.8
		C25.1,9.6,24.7,9.3,24.3,9.3"/>
	<path class="st0" d="M23.7,13.4H13.5c-0.4,0-0.8,0.4-0.8,0.8s0.4,0.8,0.8,0.8h10.2c0.4,0,0.8-0.4,0.8-0.8S24.1,13.4,23.7,13.4"/>
	<path class="st0" d="M32.1,5.7c-0.3-0.4-0.8-0.6-1.2-0.6H6L5.5,2.7C5.4,2.2,5,1.8,4.6,1.6L1.1,0.1c-0.4-0.2-0.9,0-1,0.4
		c-0.2,0.4,0,0.9,0.4,1L4,3l3.9,18.7C8.1,22.4,8.7,23,9.5,23h19.1c0.4,0,0.8-0.4,0.8-0.8s-0.4-0.8-0.8-0.8H9.5L9,19.1h19.7
		c0.8,0,1.4-0.5,1.6-1.3L32.5,7C32.5,6.6,32.4,6.1,32.1,5.7 M28.6,17.6h-20L6.4,6.8h24.5L28.6,17.6z"/>
</g>
</svg>
